<svg width="416" height="416" viewBox="0 0 416 416" fill="none" xmlns="http://www.w3.org/2000/svg">
<path d="M208 0C93.31 0 0 93.31 0 208C0 322.69 93.31 416 208 416C322.69 416 416 322.69 416 208C416 93.31 322.69 0 208 0Z" fill="#FFC700"/>
<path d="M208.015 98C202.605 98 197.656 102.598 198.019 107.996L203.017 242.946C203.017 244.272 203.543 245.543 204.481 246.48C205.418 247.418 206.689 247.944 208.015 247.944C209.341 247.944 210.612 247.418 211.549 246.48C212.487 245.543 213.013 244.272 213.013 242.946L218.011 107.996C218.374 102.598 213.425 98 208.015 98Z" stroke="#333333" stroke-width="32" stroke-linecap="round" stroke-linejoin="round"/>
<path d="M208.015 317.918C213.536 317.918 218.011 313.442 218.011 307.922C218.011 302.401 213.536 297.925 208.015 297.925C202.494 297.925 198.019 302.401 198.019 307.922C198.019 313.442 202.494 317.918 208.015 317.918Z" fill="#333333" stroke="#333333" stroke-width="37" stroke-linecap="round" stroke-linejoin="round"/>
</svg>
