<svg width="51" height="51" viewBox="0 0 51 51" fill="none" xmlns="http://www.w3.org/2000/svg">
<path d="M50.9992 25.5001L50.9997 25.5007C50.9997 32.2633 48.3129 38.7494 43.5306 43.5314C38.7488 48.3138 32.2627 51 25.4999 51C18.737 51 12.2506 48.3138 7.46912 43.5314C2.68678 38.7491 0 32.263 0 25.5007C0 18.7375 2.68678 12.2515 7.46912 7.46857C12.2509 2.68678 18.737 0 25.4999 0C29.9759 0 34.3734 1.17823 38.2497 3.41626C42.1264 5.65429 45.3452 8.87357 47.5832 12.7498C49.8218 16.6266 51 21.0235 51 25.5001L50.9992 25.5001ZM29.9932 25.5001L34.1367 21.388L34.1372 21.3885C34.9457 20.5801 35.2616 19.4013 34.9654 18.2973C34.6693 17.1927 33.8069 16.3299 32.7024 16.0342C31.5978 15.7381 30.4196 16.054 29.6111 16.8624L25.499 21.006L21.3868 16.8624C20.5784 16.054 19.4002 15.7381 18.2956 16.0342C17.191 16.3299 16.3287 17.1927 16.0325 18.2973C15.7364 19.4013 16.0523 20.5801 16.8607 21.3885L21.0048 25.5007L16.8613 29.6128L16.8607 29.6123C16.2572 30.211 15.9178 31.0259 15.9178 31.8753C15.9178 32.7254 16.2572 33.5403 16.8607 34.1383C17.4594 34.7419 18.2743 35.0812 19.1237 35.0812C19.9738 35.0812 20.7887 34.7419 21.3868 34.1383L25.4989 29.9948L29.6111 34.1383C30.2093 34.7419 31.0241 35.0812 31.8741 35.0812C32.7236 35.0812 33.5385 34.7419 34.1371 34.1383C34.7407 33.5402 35.08 32.7253 35.08 31.8753C35.08 31.0258 34.7406 30.2109 34.1371 29.6123L29.9932 25.5001Z" fill="#EB5757"/>
</svg>
