<svg width="53" height="36" viewBox="0 0 53 36" fill="none" xmlns="http://www.w3.org/2000/svg">
<path d="M25.176 0.000217047C25.1212 -0.000659061 25.0664 0.00109307 25.0116 0.00591138C24.8859 0.0177382 24.7624 0.0444574 24.6432 0.0856321L1.06354 7.96567V7.96611C0.42803 8.18031 0 8.77996 0 9.45447C0 10.1295 0.42803 10.7287 1.06354 10.9433L8.65747 13.4852V21.5952C8.65747 22.9194 9.47002 23.9758 10.4417 24.7135C11.4135 25.4512 12.6436 26.007 14.1017 26.4735C17.0179 27.4065 20.8727 27.933 25.1394 27.933C29.4061 27.933 33.2579 27.4065 36.1741 26.4735C37.6322 26.007 38.8623 25.4511 39.834 24.7135C40.8058 23.9759 41.6183 22.9194 41.6183 21.5952V13.4852L47.1661 11.6271V24.6919L44.9889 26.5775C44.6453 26.8767 44.4482 27.3126 44.45 27.7703V34.4239C44.4465 35.2908 45.142 35.9964 46.0029 36H51.4349C51.8503 36.0013 52.2496 35.8357 52.5433 35.5401C52.8373 35.244 53.0017 34.8423 53 34.424V27.7704C53.0009 27.3122 52.8029 26.8763 52.458 26.5776L50.284 24.6949V9.947C50.2849 9.85545 50.2779 9.76434 50.2627 9.67411C50.3675 8.92421 49.9256 8.20582 49.2122 7.9663L25.6325 0.0862609C25.4855 0.0345736 25.3315 0.00566358 25.1758 0.000407828L25.176 0.000217047ZM25.1395 3.22588L43.7805 9.46248L39.7094 10.8239C39.662 10.8349 39.6155 10.848 39.5694 10.8633L25.1399 15.6961L10.707 10.8638C10.66 10.8471 10.6122 10.8327 10.5639 10.8208L6.49594 9.46256L25.1395 3.22588ZM38.5 14.5279V21.5954C38.5 21.5941 38.48 21.7908 37.9458 22.1964C37.4117 22.602 36.4686 23.0755 35.2297 23.4719C32.7516 24.2648 29.1399 24.8058 25.139 24.8058C21.1381 24.8058 17.5232 24.2648 15.0451 23.4719C13.8063 23.0755 12.8511 22.602 12.3169 22.1964C11.7827 21.7908 11.778 21.5941 11.778 21.5954V14.531L24.6429 18.8359C24.9639 18.9441 25.3115 18.9441 25.6325 18.8359L38.5 14.5279ZM48.7187 27.4952L49.8818 28.4917V32.861H47.5677V28.4917L48.7187 27.4952Z" fill="#235B4E"/>
</svg>
