<svg width="53" height="46" viewBox="0 0 53 46" fill="none" xmlns="http://www.w3.org/2000/svg">
<path d="M6.91475 21.8012C7.11156 21.9453 7.33978 22.0146 7.56706 22.0146C7.89045 22.0146 8.21059 21.8728 8.42771 21.6021L9.44914 20.3317C10.7164 22.5557 13.3284 24.6253 15.671 26.1572L16.2822 30.9562C16.2831 30.9627 16.2799 30.9687 16.2808 30.9756C16.2817 30.9825 16.2859 30.9876 16.2868 30.9945L17.9568 44.1055C17.9938 44.3961 18.1449 44.6598 18.3768 44.8391C18.5713 44.9897 18.8092 45.0696 19.0522 45.0696C19.0984 45.0696 19.1455 45.0668 19.1922 45.0604L52.0416 40.8656C52.4985 40.8074 52.8529 40.4762 52.9656 40.0572C52.9799 40.005 52.9711 39.9491 52.9776 39.895C52.9878 39.8077 53.0081 39.7227 52.9965 39.6317L52.9961 39.627V39.6261L52.8917 38.808L50.4806 19.9174C50.4436 19.6268 50.2926 19.363 50.0607 19.1838C49.8292 19.005 49.5372 18.9214 49.2453 18.962L39.644 20.1858L33.3255 12.1697C32.4658 11.096 31.2336 10.3351 29.8551 10.027L19.572 7.74214L20.545 6.53228C20.7335 6.29806 20.8185 5.99592 20.7792 5.69703C20.7399 5.3986 20.5801 5.1288 20.3371 4.95048L13.8741 0.213814C13.3959 -0.135898 12.7312 -0.0476601 12.3611 0.412926L0.243614 15.4835C0.0551219 15.7178 -0.0298756 16.0199 0.0093886 16.3188C0.0486564 16.6172 0.208501 16.887 0.451502 17.0653L6.91475 21.8012ZM30.4603 30.3561C29.4084 28.7576 26.8661 25.5275 25.6705 24.1938L41.9439 22.1191C42.8535 25.4092 45.8448 27.727 49.2584 27.7801L49.8391 32.3287C48.2393 32.7695 46.826 33.7031 45.7917 35.041C44.7564 36.3798 44.208 37.9834 44.1845 39.6437L26.4931 41.9028C25.5834 38.6131 22.5949 36.2963 19.1824 36.2464L18.6035 31.7015C19.3177 31.5028 19.9927 31.203 20.6145 30.814C21.2756 31.7227 22.0087 32.753 22.6028 33.5877C23.0454 34.2095 23.4112 34.7246 23.6113 34.9977C24.0095 35.5488 24.5417 35.9835 25.1524 36.2579C25.2545 36.3101 25.3473 36.342 25.4185 36.3618C25.9641 36.572 26.5189 36.6746 27.0613 36.6746C28.2939 36.6746 29.4567 36.1452 30.2661 35.1546C31.3952 33.7723 31.4713 31.8885 30.461 30.3561L30.4603 30.3561ZM24.8473 22.0728C24.8607 21.9869 24.8579 21.8987 24.8828 21.8146C24.9983 21.4048 25.2464 20.9151 26.1501 20.7585C26.9289 20.6246 27.7549 20.8759 28.3416 21.415L28.5361 21.6026L24.8473 22.0728ZM50.3513 36.3404L50.6668 38.8116L46.3977 39.3576C46.5603 37.1596 48.0354 35.253 50.1216 34.5425L50.3513 36.3404ZM18.3178 29.4677L18.1085 27.8248C18.5303 28.1856 18.9216 28.5885 19.2801 29.0315C18.9757 29.2075 18.6537 29.3522 18.3178 29.4677ZM19.4631 38.4595C21.6592 38.6207 23.5677 40.0981 24.2787 42.1854L20.0068 42.731L19.4631 38.4595ZM48.9751 25.5626C46.7761 25.4 44.8681 23.9249 44.1581 21.8373L48.4305 21.2926L48.9751 25.5626ZM29.3749 12.1832C30.2637 12.3814 31.0551 12.8669 31.5965 13.5442L37.0894 20.5127L31.3447 21.2449L29.8553 19.8086C28.7489 18.7918 27.2253 18.3312 25.7737 18.5835C24.2321 18.85 23.1612 19.7846 22.7626 21.2006C22.5292 21.9855 22.5385 22.8291 22.7806 23.6139C22.9704 24.2861 23.3345 24.9209 23.8334 25.4497C24.8294 26.5095 27.5685 29.9766 28.6167 31.5709C29.0994 32.3022 29.0763 33.1205 28.5552 33.7579C28.1131 34.2989 27.2557 34.7216 26.1751 34.2883C26.152 34.279 26.1197 34.2679 26.0878 34.2582C26.0841 34.2568 26.0809 34.2555 26.0776 34.2541C25.8111 34.14 25.5764 33.9501 25.3958 33.7002C25.1948 33.4253 24.8354 32.9199 24.4002 32.3091C23.5941 31.175 22.5334 29.6842 21.7545 28.6397C21.5318 28.3228 21.3202 28.041 21.1498 27.8252C20.2859 26.7114 19.2483 25.7847 18.0564 25.0673C17.8693 24.9569 17.6688 24.8247 17.454 24.6834L17.2932 24.579C13.7387 22.3176 11.4996 20.0987 11.0048 18.3972L18.0292 9.66175L29.3749 12.1832ZM13.4209 2.61943L18.1011 6.05009L16.742 7.74046C16.7346 7.74924 16.7281 7.75755 16.7212 7.76633L7.36804 19.398L2.68779 15.9673L13.4209 2.61943Z" fill="#235B4E"/>
<path d="M31.9126 32.4418C32.612 32.9837 33.4801 33.2179 34.3583 33.107C34.9658 33.0363 35.5156 33.459 35.5932 34.0628C35.6703 34.6666 35.2416 35.2201 34.6383 35.2977C34.1985 35.3554 33.7679 35.1415 33.5438 34.7571C33.2366 34.2305 32.5617 34.0517 32.0341 34.3589C31.5074 34.6657 31.3291 35.3415 31.6358 35.8687C32.1131 36.6878 32.9058 37.2292 33.7978 37.4224L33.9637 38.7223C34.0348 39.279 34.5097 39.686 35.0567 39.686C35.1038 39.686 35.1505 39.6832 35.1981 39.6768C35.8028 39.5996 36.2306 39.0466 36.153 38.442L35.9881 37.148C36.4223 36.929 36.8118 36.6246 37.1185 36.2282C37.6595 35.5288 37.8956 34.6598 37.7833 33.7825C37.6711 32.9052 37.2243 32.124 36.5248 31.583C35.8249 31.0411 34.9564 30.8055 34.0791 30.9177C33.7913 30.9565 33.4975 30.8762 33.2642 30.6955C33.0309 30.5149 32.8821 30.2548 32.8442 29.9619C32.7671 29.3581 33.1958 28.8047 33.7987 28.7275C34.2773 28.6632 34.724 28.9122 34.9314 29.3377C35.198 29.8852 35.8582 30.1148 36.4074 29.845C36.9548 29.5775 37.1826 28.9169 36.9147 28.369C36.461 27.4391 35.6114 26.8015 34.638 26.5914L34.4736 25.3029C34.3964 24.6986 33.8393 24.2685 33.2391 24.3484C32.6344 24.4256 32.2066 24.9786 32.2842 25.5832L32.4491 26.8772C32.0149 27.0962 31.6254 27.4006 31.3187 27.797C30.7777 28.4964 30.5416 29.3654 30.6539 30.2427C30.7662 31.1195 31.2129 31.9003 31.9124 32.4417L31.9126 32.4418Z" fill="#235B4E"/>
</svg>
